<svg width="36" height="24" viewBox="0 0 36 24" fill="none" xmlns="http://www.w3.org/2000/svg">
<path d="M33 24H3C2.20435 24 1.44129 23.6839 0.87868 23.1213C0.31607 22.5587 0 21.7956 0 21L0 3C0 2.20435 0.31607 1.44129 0.87868 0.87868C1.44129 0.31607 2.20435 0 3 0L33 0C33.7956 0 34.5587 0.31607 35.1213 0.87868C35.6839 1.44129 36 2.20435 36 3V21C36 21.7956 35.6839 22.5587 35.1213 23.1213C34.5587 23.6839 33.7956 24 33 24ZM8 7.25V4.749C7.99921 4.5505 7.92008 4.36035 7.77981 4.21989C7.63955 4.07944 7.4495 4.00005 7.251 3.999H4.75C4.5515 3.99979 4.36135 4.07892 4.22089 4.21919C4.08044 4.35945 4.00105 4.5495 4 4.748V7.249C4.00079 7.4475 4.07992 7.63765 4.22019 7.77811C4.36045 7.91856 4.5505 7.99795 4.749 7.999H7.25C7.4485 7.99821 7.63865 7.91908 7.77911 7.77881C7.91956 7.63855 7.99895 7.4485 8 7.25V7.25ZM14 7.25V4.749C13.9992 4.5505 13.9201 4.36035 13.7798 4.21989C13.6395 4.07944 13.4495 4.00005 13.251 3.999H10.75C10.5515 3.99979 10.3613 4.07892 10.2209 4.21919C10.0804 4.35945 10.0011 4.5495 10 4.748V7.249C10.0008 7.4475 10.0799 7.63765 10.2202 7.77811C10.3605 7.91856 10.5505 7.99795 10.749 7.999H13.249C13.4475 7.99821 13.6377 7.91908 13.7781 7.77881C13.9186 7.63855 13.9979 7.4485 13.999 7.25H14ZM20 7.25V4.749C19.9992 4.5505 19.9201 4.36035 19.7798 4.21989C19.6395 4.07944 19.4495 4.00005 19.251 3.999H16.75C16.5515 3.99979 16.3613 4.07892 16.2209 4.21919C16.0804 4.35945 16.0011 4.5495 16 4.748V7.249C16.0008 7.4475 16.0799 7.63765 16.2202 7.77811C16.3605 7.91856 16.5505 7.99795 16.749 7.999H19.249C19.4477 7.99874 19.6381 7.91977 19.7787 7.77939C19.9193 7.63901 19.9985 7.44866 19.999 7.25H20ZM26 7.25V4.749C25.9992 4.5505 25.9201 4.36035 25.7798 4.21989C25.6395 4.07944 25.4495 4.00005 25.251 3.999H22.75C22.5515 3.99979 22.3613 4.07892 22.2209 4.21919C22.0804 4.35945 22.0011 4.5495 22 4.748V7.249C22.0008 7.4475 22.0799 7.63765 22.2202 7.77811C22.3605 7.91856 22.5505 7.99795 22.749 7.999H25.249C25.4475 7.99821 25.6377 7.91908 25.7781 7.77881C25.9186 7.63855 25.9979 7.4485 25.999 7.25H26ZM32 7.25V4.749C31.9992 4.5505 31.9201 4.36035 31.7798 4.21989C31.6395 4.07944 31.4495 4.00005 31.251 3.999H28.748C28.5496 3.99979 28.3595 4.07896 28.2192 4.21925C28.079 4.35954 27.9998 4.5496 27.999 4.748V7.249C27.9995 7.44775 28.0787 7.63821 28.2193 7.77875C28.3598 7.91929 28.5503 7.99847 28.749 7.999H31.252C31.45 7.99768 31.6394 7.91825 31.7791 7.77799C31.9188 7.63772 31.9975 7.44797 31.998 7.25H32ZM8 13.25V10.749C7.99921 10.5505 7.92008 10.3603 7.77981 10.2199C7.63955 10.0794 7.4495 10.0001 7.251 9.999H4.75C4.5515 9.99979 4.36135 10.0789 4.22089 10.2192C4.08044 10.3595 4.00105 10.5495 4 10.748V13.248C4.00079 13.4465 4.07992 13.6367 4.22019 13.7771C4.36045 13.9176 4.5505 13.9969 4.749 13.998H7.25C7.4485 13.9972 7.63865 13.9181 7.77911 13.7778C7.91956 13.6375 7.99895 13.4475 8 13.249V13.25ZM14 13.25V10.749C13.9992 10.5505 13.9201 10.3603 13.7798 10.2199C13.6395 10.0794 13.4495 10.0001 13.251 9.999H10.75C10.5515 9.99979 10.3613 10.0789 10.2209 10.2192C10.0804 10.3595 10.0011 10.5495 10 10.748V13.248C10.0008 13.4465 10.0799 13.6367 10.2202 13.7771C10.3605 13.9176 10.5505 13.9969 10.749 13.998H13.249C13.4475 13.9972 13.6377 13.9181 13.7781 13.7778C13.9186 13.6375 13.9979 13.4475 13.999 13.249L14 13.25ZM20 13.25V10.749C19.9992 10.5505 19.9201 10.3603 19.7798 10.2199C19.6395 10.0794 19.4495 10.0001 19.251 9.999H16.75C16.5515 9.99979 16.3613 10.0789 16.2209 10.2192C16.0804 10.3595 16.0011 10.5495 16 10.748V13.248C16.0008 13.4465 16.0799 13.6367 16.2202 13.7771C16.3605 13.9176 16.5505 13.9969 16.749 13.998H19.249C19.4477 13.998 19.6384 13.9191 19.779 13.7787C19.9196 13.6382 19.9987 13.4477 19.999 13.249L20 13.25ZM26 13.25V10.749C25.9992 10.5505 25.9201 10.3603 25.7798 10.2199C25.6395 10.0794 25.4495 10.0001 25.251 9.999H22.75C22.5515 9.99979 22.3613 10.0789 22.2209 10.2192C22.0804 10.3595 22.0011 10.5495 22 10.748V13.248C22.0008 13.4465 22.0799 13.6367 22.2202 13.7771C22.3605 13.9176 22.5505 13.9969 22.749 13.998H25.249C25.4477 13.998 25.6384 13.9191 25.779 13.7787C25.9196 13.6382 25.9987 13.4477 25.999 13.249L26 13.25ZM32 13.25V10.749C31.9995 10.5506 31.9206 10.3604 31.7805 10.22C31.6403 10.0795 31.4504 10.0001 31.252 9.999H28.749C28.5503 9.99926 28.3599 10.0782 28.2193 10.2186C28.0787 10.359 27.9995 10.5493 27.999 10.748V13.248C27.9995 13.4468 28.0787 13.6372 28.2193 13.7777C28.3598 13.9183 28.5503 13.9975 28.749 13.998H31.252C31.4502 13.9969 31.64 13.9177 31.7801 13.7774C31.9202 13.6371 31.9992 13.4472 32 13.249V13.25ZM8 19.25V16.749C7.99921 16.5505 7.92008 16.3603 7.77981 16.2199C7.63955 16.0794 7.4495 16.0001 7.251 15.999H4.75C4.5515 15.9998 4.36135 16.0789 4.22089 16.2192C4.08044 16.3595 4.00105 16.5495 4 16.748V19.248C4.00026 19.4467 4.07923 19.6371 4.21961 19.7777C4.35999 19.9183 4.55034 19.9975 4.749 19.998H7.25C7.4485 19.9972 7.63865 19.9181 7.77911 19.7778C7.91956 19.6375 7.99895 19.4475 8 19.249V19.25ZM26 19.25V16.749C25.9992 16.5505 25.9201 16.3603 25.7798 16.2199C25.6395 16.0794 25.4495 16.0001 25.251 15.999H10.75C10.5515 15.9998 10.3613 16.0789 10.2209 16.2192C10.0804 16.3595 10.0011 16.5495 10 16.748V19.248C10.0008 19.4465 10.0799 19.6367 10.2202 19.7771C10.3605 19.9176 10.5505 19.9969 10.749 19.998H25.25C25.4485 19.9972 25.6387 19.9181 25.7791 19.7778C25.9196 19.6375 25.9989 19.4475 26 19.249V19.25ZM32 19.25V16.749C31.9992 16.5505 31.9201 16.3603 31.7798 16.2199C31.6395 16.0794 31.4495 16.0001 31.251 15.999H28.748C28.5493 15.9993 28.3589 16.0782 28.2183 16.2186C28.0777 16.359 27.9985 16.5493 27.998 16.748V19.248C27.9985 19.4467 28.0777 19.6372 28.2183 19.7777C28.3588 19.9183 28.5492 19.9975 28.748 19.998H31.251C31.4492 19.9969 31.639 19.9177 31.7791 19.7774C31.9192 19.6371 31.9982 19.4472 31.999 19.249L32 19.25Z" fill="white"/>
</svg>
