<svg width="15" height="14" viewBox="0 0 15 14" fill="none" xmlns="http://www.w3.org/2000/svg">
<path d="M0 4H4L9 0V14L4 10H0V4ZM12.69 1.54C12.82 1.59 16 2.92 16 7C16 11.08 12.82 12.41 12.69 12.46C12.6297 12.4862 12.5648 12.4999 12.4991 12.5004C12.4334 12.501 12.3683 12.4882 12.3077 12.463C12.247 12.4378 12.192 12.4007 12.146 12.3538C12.1 12.3069 12.064 12.2512 12.04 12.19C11.93 11.93 12.06 11.64 12.31 11.54C12.42 11.49 15 10.39 15 7C15 3.59 12.34 2.47 12.31 2.46C12.2492 2.43556 12.1939 2.39925 12.1473 2.35317C12.1006 2.3071 12.0637 2.2522 12.0386 2.19168C12.0134 2.13116 12.0006 2.06623 12.0008 2.00069C12.0011 1.93516 12.0144 1.87033 12.04 1.81C12.14 1.56 12.43 1.43 12.69 1.54V1.54ZM14 7C14 9.57 11.77 10.43 11.68 10.47C11.62 10.49 11.56 10.5 11.5 10.5C11.3 10.5 11.11 10.38 11.03 10.18C10.93 9.92 11.07 9.63 11.32 9.53C11.39 9.51 13 8.86 13 7C13 5.14 11.39 4.49 11.32 4.47C11.1981 4.41883 11.1002 4.32314 11.0464 4.20239C10.9925 4.08164 10.9866 3.94491 11.03 3.82C11.13 3.57 11.42 3.43 11.68 3.53C11.77 3.57 14 4.43 14 7Z" fill="white"/>
</svg>
